<svg id="svg" version="1.1" xmlns="http://www.w3.org/2000/svg" xmlns:xlink="http://www.w3.org/1999/xlink" width="400" height="192.32804232804233" viewBox="0, 0, 400,192.32804232804233"><g id="svgg"><path id="path0" d="M282.947 40.082 C 282.139 40.200,281.333 40.258,281.156 40.212 C 280.966 40.162,280.833 40.212,280.833 40.333 C 280.833 40.454,280.701 40.504,280.512 40.455 C 280.335 40.409,279.625 40.502,278.934 40.663 C 278.242 40.823,277.642 40.920,277.600 40.877 C 277.557 40.835,277.425 40.860,277.306 40.934 C 277.187 41.007,276.975 41.079,276.836 41.092 C 276.697 41.105,276.190 41.236,275.708 41.383 C 275.227 41.529,274.833 41.606,274.833 41.554 C 274.833 41.502,274.721 41.553,274.583 41.667 C 274.446 41.781,274.333 41.829,274.333 41.773 C 274.333 41.717,273.949 41.823,273.478 42.009 C 273.008 42.194,272.590 42.312,272.549 42.271 C 272.508 42.230,272.067 42.376,271.570 42.596 C 271.072 42.816,270.628 42.996,270.582 42.996 C 270.536 42.996,270.228 43.109,269.898 43.247 C 269.568 43.385,269.231 43.456,269.149 43.406 C 269.067 43.355,269.000 43.374,268.999 43.448 C 268.999 43.558,267.632 44.218,267.333 44.252 C 267.287 44.258,266.745 44.506,266.128 44.805 C 265.511 45.103,264.949 45.352,264.878 45.359 C 264.808 45.365,264.563 45.502,264.333 45.663 C 263.743 46.079,262.440 46.740,262.292 46.700 C 262.223 46.682,262.167 46.725,262.167 46.795 C 262.167 46.866,261.885 47.069,261.542 47.246 C 261.198 47.422,260.785 47.676,260.625 47.809 C 260.465 47.943,260.332 47.984,260.331 47.901 C 260.329 47.818,260.273 47.826,260.206 47.919 C 260.138 48.012,259.408 48.534,258.583 49.078 C 257.758 49.623,256.765 50.324,256.375 50.637 C 255.985 50.951,255.667 51.172,255.667 51.129 C 255.667 51.087,255.273 51.415,254.792 51.858 C 254.310 52.302,253.864 52.665,253.799 52.666 C 253.679 52.667,253.374 52.936,251.917 54.327 C 251.458 54.764,250.840 55.287,250.542 55.489 C 250.244 55.691,250.000 55.931,250.000 56.022 C 250.000 56.114,249.588 56.608,249.083 57.120 C 248.579 57.632,248.167 58.083,248.167 58.122 C 248.167 58.161,247.960 58.399,247.708 58.653 C 247.456 58.906,247.100 59.321,246.917 59.575 C 246.733 59.829,246.506 60.122,246.411 60.227 C 246.121 60.548,244.763 62.381,244.328 63.041 C 244.102 63.384,243.856 63.665,243.782 63.666 C 243.708 63.666,243.687 63.732,243.736 63.811 C 243.785 63.890,243.677 64.090,243.496 64.254 C 243.315 64.418,243.167 64.608,243.167 64.678 C 243.167 64.812,242.141 66.439,241.835 66.792 C 241.735 66.906,241.690 67.000,241.734 67.000 C 241.779 67.000,241.557 67.456,241.242 68.014 C 240.927 68.571,240.541 69.302,240.385 69.639 C 240.229 69.975,240.036 70.295,239.956 70.350 C 239.876 70.405,239.790 70.555,239.763 70.683 C 239.694 71.022,239.205 72.153,238.816 72.875 C 238.630 73.219,238.522 73.500,238.576 73.500 C 238.630 73.500,238.525 73.791,238.344 74.146 C 238.163 74.501,238.061 74.839,238.118 74.896 C 238.175 74.953,238.130 75.000,238.018 75.000 C 237.906 75.000,237.850 75.060,237.895 75.132 C 237.940 75.205,237.836 75.580,237.663 75.966 C 237.491 76.351,237.380 76.667,237.417 76.667 C 237.455 76.667,237.293 77.173,237.059 77.792 C 236.825 78.410,236.613 79.067,236.590 79.250 C 236.566 79.433,236.428 79.977,236.282 80.458 C 236.137 80.940,236.061 81.333,236.113 81.333 C 236.165 81.333,236.124 81.434,236.022 81.557 C 235.920 81.680,235.875 81.819,235.922 81.867 C 235.969 81.914,235.892 82.394,235.750 82.935 C 235.608 83.475,235.456 84.292,235.412 84.750 C 235.367 85.208,235.256 85.998,235.165 86.505 C 234.230 91.688,234.681 101.006,236.169 107.250 C 240.363 124.845,253.976 140.018,270.667 145.700 C 280.597 149.081,293.039 149.580,303.167 147.004 C 311.304 144.934,318.805 140.917,324.979 135.321 L 326.583 133.867 330.442 137.708 L 334.300 141.548 334.554 141.065 C 334.820 140.560,341.006 134.392,341.583 134.056 C 341.890 133.878,341.591 133.535,337.875 129.805 C 335.652 127.573,333.833 125.691,333.833 125.622 C 333.833 125.553,334.080 125.141,334.381 124.707 C 345.630 108.472,346.300 84.067,335.971 66.727 C 335.403 65.773,334.892 65.013,334.835 65.038 C 334.701 65.097,330.827 69.217,324.454 76.077 L 321.363 79.404 321.660 79.994 C 322.645 81.942,323.767 85.593,324.353 88.750 C 324.865 91.512,324.917 99.761,324.429 100.867 C 324.360 101.023,324.342 101.213,324.389 101.289 C 324.436 101.365,324.359 101.950,324.219 102.589 C 324.078 103.227,323.940 103.900,323.912 104.083 C 323.884 104.267,323.846 104.454,323.827 104.500 C 323.809 104.546,323.801 104.634,323.809 104.695 C 323.818 104.757,323.681 105.225,323.505 105.737 C 323.329 106.248,323.217 106.667,323.257 106.667 C 323.296 106.667,323.172 107.060,322.982 107.542 C 322.791 108.023,322.610 108.529,322.579 108.667 C 322.469 109.165,321.142 112.067,320.814 112.528 C 320.629 112.788,320.529 113.000,320.592 113.000 C 320.655 113.000,320.521 113.244,320.294 113.542 C 320.067 113.840,319.828 114.252,319.763 114.458 C 319.698 114.665,319.570 114.833,319.479 114.833 C 319.388 114.833,319.353 114.897,319.402 114.976 C 319.450 115.054,319.305 115.292,319.078 115.505 C 318.852 115.717,318.667 115.977,318.667 116.081 C 318.667 116.185,318.532 116.416,318.368 116.594 C 318.204 116.771,317.745 117.348,317.348 117.875 C 316.951 118.402,316.561 118.833,316.480 118.833 C 316.399 118.833,316.333 118.919,316.333 119.023 C 316.333 119.127,315.452 120.074,314.375 121.128 C 311.824 123.622,311.572 123.847,310.583 124.506 C 310.125 124.811,309.712 125.111,309.667 125.172 C 309.535 125.347,306.333 127.332,306.333 127.239 C 306.333 127.192,306.053 127.345,305.711 127.577 C 305.369 127.810,305.032 128.000,304.962 128.000 C 304.892 128.000,304.262 128.264,303.562 128.588 C 302.863 128.911,302.169 129.196,302.020 129.220 C 301.872 129.245,301.412 129.385,301.000 129.530 C 299.566 130.037,298.330 130.351,298.165 130.249 C 298.074 130.193,298.000 130.231,298.000 130.333 C 298.000 130.436,297.934 130.479,297.854 130.429 C 297.774 130.380,297.008 130.492,296.152 130.679 C 295.296 130.866,294.417 130.973,294.199 130.919 C 293.980 130.864,293.696 130.906,293.568 131.013 C 293.223 131.299,286.364 131.109,284.333 130.756 C 270.025 128.274,258.529 117.466,255.930 104.053 C 251.107 79.156,267.656 58.511,291.583 59.576 C 300.289 59.963,307.661 63.128,313.886 69.152 L 315.189 70.413 316.137 69.415 C 316.658 68.866,318.027 67.404,319.178 66.167 C 320.330 64.929,322.821 62.256,324.714 60.226 L 328.157 56.536 326.287 54.725 C 318.094 46.794,308.590 42.077,297.250 40.313 C 294.353 39.863,285.444 39.719,282.947 40.082 " stroke="none" fill="#fbbc04" fill-rule="evenodd"></path><path id="path1" d="M149.167 94.666 L 149.167 148.667 187.500 148.667 L 225.833 148.667 225.833 139.500 L 225.833 130.333 197.749 130.333 L 169.665 130.333 169.707 115.792 L 169.750 101.250 194.960 101.208 L 220.170 101.166 220.126 92.041 L 220.083 82.917 194.875 82.874 L 169.667 82.832 169.667 70.916 L 169.667 59.000 196.835 59.000 L 224.003 59.000 223.960 49.875 L 223.917 40.750 186.542 40.708 L 149.167 40.666 149.167 94.666 " stroke="none" fill="#ec4434" fill-rule="evenodd"></path><path id="path2" d="M366.667 31.000 C 366.667 31.458,366.742 31.833,366.833 31.833 C 366.925 31.833,367.000 31.458,367.000 31.000 C 367.000 30.542,366.925 30.167,366.833 30.167 C 366.742 30.167,366.667 30.542,366.667 31.000 M351.833 39.201 C 351.833 39.432,351.139 45.756,350.667 49.833 C 350.491 51.346,350.151 54.421,349.912 56.667 C 349.672 58.913,349.444 60.849,349.405 60.970 C 349.363 61.102,348.191 60.119,346.471 58.511 C 344.896 57.038,343.558 55.833,343.498 55.833 C 343.378 55.833,342.451 56.795,339.000 60.499 C 337.762 61.827,336.325 63.365,335.807 63.915 L 334.863 64.917 335.695 66.250 C 346.277 83.200,345.711 108.356,334.381 124.707 C 334.080 125.141,333.833 125.552,333.833 125.619 C 333.833 125.995,342.012 133.916,342.288 133.807 C 342.450 133.743,342.808 133.682,343.083 133.673 L 343.583 133.656 343.146 133.330 C 342.714 133.007,338.336 128.656,337.125 127.347 C 336.426 126.591,336.351 126.116,336.833 125.500 C 337.013 125.271,337.161 124.999,337.163 124.895 C 337.165 124.792,337.278 124.615,337.413 124.503 C 337.549 124.390,337.762 124.100,337.886 123.857 C 338.010 123.615,338.287 123.117,338.500 122.750 C 339.209 121.532,340.333 119.304,340.337 119.109 C 340.339 119.003,340.487 118.729,340.667 118.500 C 340.846 118.271,340.997 117.971,341.002 117.833 C 341.007 117.696,341.156 117.283,341.333 116.917 C 341.510 116.550,341.658 116.123,341.661 115.968 C 341.664 115.813,341.727 115.649,341.802 115.603 C 341.876 115.557,342.182 114.746,342.481 113.801 C 342.780 112.856,343.146 111.708,343.295 111.250 C 343.443 110.792,343.615 110.117,343.677 109.750 C 343.739 109.383,343.872 108.746,343.972 108.333 C 345.780 100.912,345.780 89.922,343.972 82.500 C 343.872 82.087,343.739 81.450,343.677 81.083 C 343.615 80.717,343.442 80.042,343.293 79.583 C 343.144 79.125,342.784 78.000,342.494 77.083 C 342.203 76.167,341.899 75.345,341.816 75.258 C 341.734 75.171,341.667 74.956,341.667 74.781 C 341.667 74.606,341.530 74.189,341.362 73.856 C 341.194 73.523,340.905 72.912,340.720 72.500 C 339.986 70.869,339.087 69.061,338.801 68.641 C 338.635 68.398,338.500 68.079,338.500 67.933 C 338.500 67.786,338.438 67.667,338.362 67.667 C 338.286 67.667,338.053 67.303,337.845 66.858 C 337.400 65.907,337.437 65.807,338.750 64.422 C 339.688 63.433,342.452 60.451,343.427 59.375 C 344.453 58.244,344.634 58.335,348.030 61.673 C 350.241 63.848,351.442 63.031,351.838 59.083 C 351.939 58.075,352.130 56.425,352.262 55.417 C 352.394 54.408,352.500 53.321,352.497 53.000 C 352.494 52.679,352.642 51.217,352.825 49.750 C 354.021 40.186,354.018 40.244,353.402 39.513 C 352.953 38.979,351.833 38.757,351.833 39.201 M82.000 39.792 C 82.000 39.860,84.682 39.921,87.959 39.927 C 104.254 39.955,114.915 44.156,121.688 53.218 C 125.284 58.029,127.823 65.327,127.832 70.875 L 127.833 72.000 117.105 72.000 L 106.376 72.000 106.264 71.150 C 104.971 61.403,96.220 56.325,83.167 57.749 C 73.390 58.815,67.964 63.675,69.589 69.911 C 70.895 74.925,75.707 77.363,92.498 81.516 C 108.194 85.398,115.390 88.314,120.988 93.059 C 133.834 103.948,134.383 125.979,122.120 138.554 C 115.937 144.894,107.478 148.243,95.109 149.246 C 65.395 151.656,46.611 138.360,45.882 114.401 L 45.790 111.385 52.770 111.275 C 56.609 111.214,61.063 111.118,62.667 111.061 L 65.583 110.958 65.968 112.770 C 68.144 123.038,73.756 129.069,82.783 130.837 C 84.857 131.244,89.734 131.465,91.584 131.237 C 92.582 131.114,92.197 131.078,88.917 130.983 C 84.956 130.868,83.942 130.718,81.000 129.811 C 79.852 129.457,77.433 128.308,76.989 127.906 C 76.843 127.775,76.669 127.667,76.603 127.667 C 76.114 127.667,73.005 124.707,72.377 123.645 C 72.222 123.382,72.036 123.167,71.964 123.167 C 71.892 123.167,71.833 123.079,71.833 122.971 C 71.833 122.864,71.729 122.658,71.601 122.513 C 71.313 122.188,70.053 119.793,69.753 119.000 C 68.815 116.523,68.000 113.820,68.000 113.186 C 68.000 112.524,67.298 111.359,66.762 111.133 C 66.141 110.870,62.759 110.854,52.625 111.065 L 45.500 111.213 45.500 113.784 C 45.500 118.436,46.970 126.384,48.344 129.167 C 48.412 129.304,48.849 130.204,49.315 131.167 C 50.101 132.789,50.561 133.646,50.878 134.076 C 51.494 134.914,51.850 135.463,51.937 135.708 C 51.993 135.869,52.095 136.000,52.164 136.000 C 52.233 136.000,52.475 136.281,52.703 136.625 C 53.483 137.805,57.139 141.667,57.475 141.667 C 57.580 141.667,57.667 141.733,57.667 141.813 C 57.667 141.894,58.098 142.287,58.625 142.688 C 59.152 143.089,59.608 143.473,59.639 143.542 C 59.669 143.610,59.797 143.667,59.922 143.667 C 60.048 143.667,60.210 143.762,60.283 143.879 C 60.584 144.357,66.044 147.479,66.628 147.506 C 66.695 147.509,67.050 147.656,67.417 147.833 C 67.783 148.010,68.177 148.158,68.292 148.161 C 68.407 148.164,68.781 148.317,69.123 148.500 C 69.465 148.683,69.849 148.833,69.975 148.833 C 70.102 148.833,70.553 148.942,70.978 149.075 C 81.521 152.377,98.409 152.378,108.856 149.077 C 109.281 148.943,109.731 148.831,109.856 148.828 C 109.981 148.825,110.383 148.677,110.750 148.500 C 111.117 148.323,111.508 148.175,111.621 148.172 C 111.930 148.164,116.478 146.054,116.667 145.831 C 116.712 145.777,117.162 145.521,117.667 145.262 C 118.171 145.003,118.621 144.738,118.667 144.674 C 118.712 144.610,118.994 144.416,119.292 144.243 C 119.590 144.070,119.833 143.869,119.833 143.797 C 119.833 143.725,119.929 143.667,120.046 143.667 C 120.163 143.667,120.381 143.535,120.530 143.375 C 120.679 143.215,121.086 142.858,121.434 142.583 C 123.332 141.086,126.307 137.809,127.335 136.083 C 127.554 135.717,127.778 135.379,127.834 135.333 C 128.044 135.162,129.479 132.459,130.489 130.333 C 133.289 124.442,133.768 114.750,131.642 107.000 C 131.453 106.313,131.194 105.504,131.066 105.203 C 130.938 104.902,130.833 104.585,130.833 104.500 C 130.833 104.083,128.587 99.796,128.316 99.694 C 128.234 99.664,128.167 99.570,128.167 99.485 C 128.167 98.779,123.900 93.911,122.080 92.543 C 121.614 92.192,120.578 91.404,119.987 90.951 C 119.241 90.379,115.292 88.167,115.009 88.163 C 114.867 88.161,114.563 88.013,114.333 87.833 C 114.104 87.654,113.825 87.506,113.713 87.504 C 113.601 87.502,113.188 87.358,112.796 87.184 C 112.065 86.861,110.827 86.353,109.500 85.834 C 109.087 85.673,107.850 85.258,106.750 84.914 C 105.650 84.569,104.337 84.156,103.833 83.996 C 102.985 83.727,101.960 83.435,99.167 82.667 C 98.051 82.361,96.190 81.884,94.000 81.345 C 93.313 81.176,92.375 80.944,91.917 80.830 C 91.458 80.716,90.783 80.570,90.417 80.506 C 90.050 80.441,89.375 80.268,88.917 80.120 C 88.458 79.973,87.483 79.689,86.750 79.490 C 84.955 79.002,83.420 78.523,82.436 78.146 C 81.988 77.974,81.487 77.833,81.321 77.833 C 81.155 77.833,80.977 77.764,80.925 77.679 C 80.872 77.595,80.587 77.472,80.290 77.407 C 79.438 77.220,76.188 75.708,75.205 75.042 C 74.901 74.835,74.619 74.667,74.580 74.667 C 74.434 74.667,72.500 72.616,72.500 72.461 C 72.500 72.373,72.364 72.102,72.197 71.859 C 71.034 70.163,71.215 67.135,72.605 65.059 C 73.592 63.584,75.214 62.472,78.333 61.130 C 81.953 59.574,90.834 59.160,95.026 60.351 C 95.636 60.525,96.218 60.667,96.319 60.667 C 96.543 60.667,97.785 61.201,98.917 61.784 C 99.912 62.297,101.367 63.379,101.977 64.060 C 102.219 64.330,102.585 64.731,102.792 64.950 C 102.998 65.169,103.167 65.408,103.167 65.482 C 103.167 65.555,103.310 65.744,103.485 65.903 C 104.106 66.465,105.833 70.511,105.833 71.404 C 105.834 72.095,106.442 73.355,106.930 73.677 C 107.397 73.985,107.838 73.998,118.101 73.999 L 128.785 74.000 129.214 73.602 C 129.865 72.998,130.044 72.092,129.832 70.461 C 129.734 69.703,129.615 68.708,129.568 68.250 C 129.287 65.513,127.809 60.657,126.512 58.208 C 126.427 58.048,126.316 57.804,126.266 57.667 C 126.215 57.529,125.987 57.117,125.758 56.750 C 125.529 56.383,125.227 55.880,125.087 55.632 C 124.584 54.743,123.305 53.000,123.154 53.000 C 123.069 53.000,123.000 52.885,123.000 52.745 C 123.000 52.604,122.888 52.446,122.750 52.394 C 122.612 52.341,122.500 52.217,122.500 52.118 C 122.500 51.702,118.231 47.750,116.682 46.733 C 116.278 46.467,115.780 46.137,115.576 46.000 C 114.943 45.573,112.179 44.000,112.061 44.000 C 112.000 44.000,111.530 43.805,111.017 43.566 C 109.695 42.951,109.637 42.929,107.406 42.177 C 106.300 41.805,105.246 41.500,105.063 41.500 C 104.881 41.500,104.286 41.360,103.741 41.188 C 102.435 40.777,99.313 40.236,96.417 39.918 C 93.950 39.647,82.000 39.543,82.000 39.792 M284.667 39.792 C 284.667 39.860,286.936 39.921,289.709 39.927 C 304.070 39.955,316.030 44.797,326.302 54.739 L 328.186 56.564 328.558 56.098 L 328.929 55.632 327.756 54.509 C 327.111 53.891,326.325 53.167,326.009 52.901 C 325.693 52.635,325.272 52.248,325.073 52.042 C 324.874 51.835,324.627 51.667,324.523 51.667 C 324.418 51.667,324.333 51.604,324.333 51.528 C 324.333 51.452,323.977 51.141,323.542 50.836 C 323.106 50.532,322.673 50.200,322.579 50.100 C 322.486 49.999,322.291 49.842,322.146 49.750 C 321.465 49.318,319.908 48.240,319.833 48.149 C 319.787 48.093,319.525 47.921,319.250 47.768 C 318.975 47.615,318.525 47.345,318.250 47.167 C 317.975 46.989,317.525 46.731,317.250 46.592 C 316.714 46.322,316.346 46.104,315.632 45.632 C 315.383 45.468,315.095 45.333,314.991 45.333 C 314.887 45.333,314.602 45.197,314.359 45.031 C 314.116 44.865,313.429 44.522,312.833 44.270 C 312.237 44.017,311.600 43.744,311.417 43.664 C 307.517 41.955,302.010 40.517,297.083 39.921 C 294.807 39.646,284.666 39.540,284.667 39.792 M80.960 39.951 C 81.168 39.991,81.468 39.990,81.627 39.948 C 81.786 39.906,81.617 39.874,81.250 39.875 C 80.883 39.877,80.753 39.911,80.960 39.951 M283.542 39.948 C 283.702 39.990,283.965 39.990,284.125 39.948 C 284.285 39.906,284.154 39.872,283.833 39.872 C 283.512 39.872,283.381 39.906,283.542 39.948 M280.333 40.333 C 280.333 40.425,280.446 40.500,280.583 40.500 C 280.721 40.500,280.833 40.425,280.833 40.333 C 280.833 40.242,280.721 40.167,280.583 40.167 C 280.446 40.167,280.333 40.242,280.333 40.333 M187.250 40.666 L 223.917 40.750 223.960 49.875 L 224.003 59.000 196.835 59.000 L 169.667 59.000 169.667 70.916 L 169.667 82.832 194.875 82.874 L 220.083 82.917 220.126 92.041 L 220.170 101.166 194.960 101.208 L 169.750 101.250 169.707 115.792 L 169.665 130.333 197.749 130.333 L 225.833 130.333 225.833 139.500 L 225.833 148.667 187.500 148.667 L 149.167 148.667 149.125 95.375 L 149.084 42.083 149.037 95.333 C 148.987 152.406,148.947 149.702,149.840 150.338 C 150.559 150.850,226.380 150.856,227.031 150.345 C 227.794 149.744,227.833 149.259,227.833 140.417 C 227.833 131.575,227.794 131.089,227.031 130.489 C 226.630 130.173,226.051 130.167,199.491 130.167 C 184.569 130.167,172.242 130.121,172.097 130.066 C 171.867 129.977,171.648 103.676,171.875 103.461 C 171.898 103.439,182.942 103.383,196.417 103.336 C 223.010 103.243,221.475 103.302,222.010 102.344 C 222.448 101.562,222.448 84.734,222.011 83.774 C 221.479 82.606,222.896 82.667,196.273 82.667 C 183.121 82.667,172.242 82.621,172.097 82.566 C 171.694 82.411,171.694 61.422,172.097 61.268 C 172.242 61.212,184.021 61.167,198.273 61.167 C 228.110 61.167,225.467 61.314,225.832 59.626 C 226.140 58.200,225.994 42.067,225.667 41.430 C 225.176 40.475,227.278 40.523,187.417 40.554 L 150.583 40.582 187.250 40.666 M67.417 42.935 C 67.050 43.074,66.619 43.230,66.458 43.280 C 66.298 43.331,66.167 43.437,66.167 43.517 C 66.167 43.597,66.485 43.520,66.875 43.347 C 67.265 43.174,67.771 42.955,68.000 42.861 C 68.659 42.589,68.156 42.654,67.417 42.935 M269.667 43.167 C 269.346 43.342,269.130 43.489,269.188 43.493 C 269.360 43.505,270.500 43.002,270.500 42.914 C 270.500 42.769,270.260 42.842,269.667 43.167 M330.096 43.308 C 330.161 43.459,330.230 43.771,330.248 44.000 C 330.266 44.229,330.293 44.553,330.307 44.720 C 330.332 45.006,331.370 46.104,333.802 48.417 L 334.854 49.417 335.271 48.936 L 335.689 48.456 333.886 46.777 C 332.895 45.854,331.609 44.634,331.030 44.065 C 330.451 43.497,330.030 43.156,330.096 43.308 M64.539 44.195 C 63.965 44.482,63.523 44.745,63.557 44.779 C 63.631 44.854,65.667 43.857,65.667 43.745 C 65.667 43.631,65.677 43.627,64.539 44.195 M266.042 44.672 C 265.652 44.845,265.333 45.028,265.333 45.079 C 265.333 45.199,266.535 44.698,266.742 44.491 C 266.952 44.281,266.876 44.301,266.042 44.672 M62.750 45.135 C 61.962 45.580,61.409 46.000,61.609 46.000 C 61.710 46.000,61.886 45.887,62.000 45.750 C 62.114 45.612,62.292 45.498,62.395 45.496 C 62.499 45.494,62.771 45.346,63.000 45.167 C 63.508 44.769,63.417 44.758,62.750 45.135 M263.711 45.809 C 263.231 46.052,262.837 46.308,262.836 46.378 C 262.833 46.523,263.908 45.995,264.417 45.602 C 264.869 45.252,264.736 45.291,263.711 45.809 M261.417 47.098 C 261.050 47.315,260.656 47.540,260.542 47.598 C 260.427 47.655,260.333 47.781,260.333 47.877 C 260.333 47.973,260.465 47.943,260.625 47.809 C 260.785 47.676,261.198 47.422,261.542 47.246 C 261.885 47.069,262.167 46.866,262.167 46.795 C 262.167 46.641,262.230 46.615,261.417 47.098 M366.669 47.458 C 366.668 47.940,366.742 48.333,366.833 48.333 C 367.046 48.333,367.046 47.163,366.833 46.833 C 366.718 46.654,366.671 46.832,366.669 47.458 M59.583 47.260 C 59.273 47.524,59.215 47.621,59.430 47.518 C 59.740 47.369,60.302 46.832,60.145 46.834 C 60.111 46.835,59.858 47.026,59.583 47.260 M258.583 48.873 C 258.125 49.168,257.712 49.450,257.667 49.498 C 257.621 49.547,257.192 49.849,256.714 50.169 C 256.237 50.488,255.804 50.854,255.752 50.981 C 255.701 51.109,255.980 50.954,256.371 50.639 C 256.763 50.323,257.627 49.707,258.292 49.270 C 259.323 48.591,259.654 48.326,259.458 48.335 C 259.435 48.336,259.042 48.579,258.583 48.873 M57.448 49.008 C 57.190 49.279,57.045 49.500,57.125 49.500 C 57.205 49.500,57.487 49.275,57.750 49.000 C 58.013 48.725,58.159 48.504,58.073 48.508 C 57.987 48.512,57.706 48.737,57.448 49.008 M333.767 50.267 C 333.437 50.597,333.167 50.912,333.167 50.967 C 333.167 51.022,333.467 50.775,333.833 50.417 C 334.200 50.059,334.500 49.743,334.500 49.716 C 334.500 49.580,334.314 49.720,333.767 50.267 M55.863 50.631 C 55.559 50.943,55.339 51.228,55.375 51.264 C 55.410 51.299,55.692 51.068,56.000 50.750 C 56.308 50.432,56.528 50.147,56.489 50.117 C 56.449 50.087,56.168 50.318,55.863 50.631 M255.174 51.319 C 255.072 51.510,254.921 51.667,254.838 51.667 C 254.755 51.667,254.441 51.892,254.140 52.167 C 253.275 52.957,253.824 52.736,254.748 51.922 C 255.205 51.519,255.529 51.141,255.469 51.081 C 255.409 51.021,255.277 51.128,255.174 51.319 M54.981 51.708 C 54.610 52.018,53.561 53.500,53.713 53.500 C 53.750 53.500,54.129 53.050,54.556 52.500 C 55.348 51.481,55.424 51.338,54.981 51.708 M331.849 52.254 C 331.537 52.575,331.319 52.874,331.364 52.919 C 331.409 52.964,331.723 52.701,332.063 52.334 C 332.821 51.514,332.636 51.445,331.849 52.254 M252.901 53.191 C 252.586 53.546,252.586 53.547,252.949 53.357 C 253.354 53.144,253.604 52.833,253.369 52.833 C 253.286 52.833,253.075 52.994,252.901 53.191 M53.037 54.335 C 52.546 55.193,52.662 55.192,53.230 54.333 C 53.473 53.967,53.614 53.667,53.544 53.668 C 53.474 53.669,53.246 53.969,53.037 54.335 M251.417 54.535 C 250.958 54.999,250.733 55.300,250.917 55.203 C 251.333 54.983,252.625 53.662,252.409 53.678 C 252.321 53.685,251.875 54.070,251.417 54.535 M330.016 54.254 C 329.704 54.575,329.486 54.874,329.531 54.919 C 329.575 54.964,329.890 54.701,330.229 54.334 C 330.988 53.514,330.803 53.445,330.016 54.254 M52.337 55.549 C 51.937 56.178,51.339 57.333,51.413 57.333 C 51.516 57.333,52.691 55.302,52.626 55.237 C 52.595 55.207,52.466 55.347,52.337 55.549 M249.024 56.928 C 248.625 57.346,248.332 57.721,248.373 57.762 C 248.414 57.803,248.794 57.461,249.217 57.002 C 250.178 55.958,250.011 55.894,249.024 56.928 M247.777 58.304 C 247.625 58.472,247.500 58.674,247.500 58.753 C 247.500 58.832,247.658 58.727,247.850 58.520 C 248.043 58.314,248.167 58.112,248.127 58.071 C 248.087 58.031,247.929 58.136,247.777 58.304 M286.268 59.670 C 271.300 61.016,258.968 72.130,255.941 87.000 C 254.901 92.108,254.859 99.135,255.841 103.643 L 256.035 104.536 256.864 103.726 C 257.659 102.949,258.251 102.159,257.855 102.403 C 257.227 102.792,256.938 95.801,257.418 91.833 C 257.699 89.516,258.179 87.114,258.673 85.552 C 258.853 84.985,259.000 84.438,259.000 84.336 C 259.000 84.234,259.150 83.840,259.333 83.461 C 259.517 83.081,259.667 82.706,259.667 82.626 C 259.667 82.118,261.942 77.613,262.542 76.934 C 262.702 76.752,262.833 76.509,262.833 76.394 C 262.833 76.278,262.927 76.123,263.042 76.050 C 263.156 75.977,263.513 75.533,263.835 75.065 C 264.844 73.597,267.298 70.954,268.927 69.583 C 269.253 69.308,269.619 68.994,269.739 68.885 C 270.224 68.443,272.193 67.000,272.311 67.000 C 272.380 67.000,272.586 66.869,272.769 66.708 C 273.364 66.185,277.952 63.833,278.377 63.833 C 278.508 63.833,278.847 63.718,279.129 63.577 C 281.251 62.519,286.466 61.664,290.769 61.670 C 294.255 61.675,299.503 62.377,300.654 62.993 C 300.832 63.089,301.099 63.167,301.247 63.167 C 301.395 63.167,301.827 63.317,302.206 63.500 C 302.585 63.683,302.967 63.833,303.055 63.833 C 303.316 63.833,306.153 65.188,307.083 65.757 C 307.450 65.981,307.862 66.216,308.000 66.279 C 308.504 66.510,309.587 67.253,309.717 67.457 C 309.790 67.572,309.920 67.667,310.006 67.667 C 310.175 67.667,310.657 68.027,311.287 68.625 C 311.504 68.831,311.751 69.000,311.835 69.000 C 311.919 69.000,312.069 69.150,312.167 69.333 C 312.265 69.517,312.415 69.667,312.499 69.667 C 312.667 69.667,314.167 71.076,314.167 71.234 C 314.167 71.287,313.930 71.557,313.640 71.833 C 313.351 72.110,313.154 72.376,313.203 72.425 C 313.252 72.474,313.716 72.046,314.233 71.474 L 315.175 70.434 314.212 69.453 C 307.170 62.270,296.989 58.706,286.268 59.670 M245.838 60.708 C 245.452 61.167,244.667 62.216,244.667 62.273 C 244.667 62.448,244.858 62.248,245.485 61.417 C 246.085 60.622,246.338 60.113,245.838 60.708 M244.219 62.792 C 244.163 62.952,244.003 63.215,243.866 63.375 C 243.728 63.535,243.675 63.667,243.747 63.667 C 243.888 63.667,244.226 63.278,244.509 62.792 C 244.626 62.590,244.623 62.500,244.501 62.500 C 244.403 62.500,244.276 62.631,244.219 62.792 M243.433 64.042 C 243.376 64.156,243.183 64.475,243.003 64.750 C 242.593 65.379,242.093 66.279,242.219 66.162 C 242.396 65.999,243.167 64.819,243.167 64.712 C 243.167 64.653,243.330 64.431,243.529 64.219 C 243.728 64.007,243.811 63.833,243.714 63.833 C 243.616 63.833,243.489 63.927,243.433 64.042 M48.667 66.510 C 48.667 66.699,48.742 66.807,48.833 66.750 C 48.925 66.693,49.000 66.539,49.000 66.407 C 49.000 66.275,48.925 66.167,48.833 66.167 C 48.742 66.167,48.667 66.321,48.667 66.510 M241.378 67.458 C 241.039 67.958,240.633 68.833,240.741 68.833 C 240.778 68.833,241.032 68.421,241.305 67.917 C 241.842 66.924,241.874 66.728,241.378 67.458 M48.618 68.631 C 48.252 72.964,49.265 78.746,50.991 82.167 C 51.152 82.487,51.335 82.956,51.396 83.208 C 51.456 83.460,51.574 83.667,51.657 83.667 C 51.740 83.667,51.894 83.929,52.000 84.250 C 52.106 84.571,52.262 84.833,52.346 84.833 C 52.431 84.833,52.500 84.977,52.500 85.153 C 52.500 85.328,52.559 85.497,52.632 85.528 C 52.766 85.584,53.833 87.122,53.833 87.258 C 53.833 87.300,53.965 87.473,54.125 87.643 C 54.285 87.813,54.604 88.195,54.833 88.493 C 55.063 88.790,55.494 89.290,55.792 89.603 C 56.090 89.916,56.333 90.212,56.333 90.261 C 56.333 90.385,57.962 92.000,58.087 92.000 C 58.143 92.000,58.437 92.263,58.739 92.583 C 59.042 92.904,59.374 93.167,59.478 93.167 C 59.582 93.167,59.667 93.227,59.667 93.301 C 59.667 93.459,61.107 94.500,61.324 94.500 C 61.406 94.500,61.497 94.564,61.528 94.642 C 61.749 95.207,66.641 97.714,70.750 99.368 C 71.208 99.553,71.830 99.808,72.131 99.935 C 72.432 100.063,72.786 100.167,72.918 100.167 C 73.050 100.167,73.479 100.307,73.871 100.479 C 74.263 100.651,75.146 100.955,75.833 101.156 C 76.521 101.356,77.308 101.598,77.583 101.694 C 77.858 101.789,78.458 101.962,78.917 102.077 C 79.375 102.193,80.162 102.406,80.667 102.551 C 81.517 102.796,83.110 103.203,85.333 103.745 C 85.837 103.867,86.587 104.056,87.000 104.163 C 87.412 104.271,88.162 104.455,88.667 104.573 C 89.171 104.691,89.996 104.905,90.500 105.048 C 91.004 105.191,92.017 105.470,92.750 105.668 C 95.185 106.326,96.726 106.769,99.583 107.634 C 100.982 108.057,103.916 109.416,104.962 110.125 C 105.266 110.331,105.555 110.500,105.604 110.500 C 105.734 110.500,107.547 112.371,107.790 112.756 C 108.651 114.119,109.009 115.261,109.116 116.989 C 109.210 118.504,109.247 118.669,109.382 118.167 C 109.837 116.467,109.123 113.079,107.931 111.282 C 105.417 107.496,102.089 106.109,85.250 101.837 C 67.934 97.443,60.968 94.090,55.375 87.457 C 51.032 82.305,49.087 77.173,48.855 70.250 C 48.751 67.157,48.746 67.119,48.618 68.631 M240.186 69.667 C 239.995 70.033,239.904 70.333,239.983 70.333 C 240.063 70.333,240.173 70.202,240.228 70.042 C 240.283 69.881,240.402 69.581,240.492 69.375 C 240.762 68.758,240.559 68.951,240.186 69.667 M312.117 73.465 C 311.778 73.813,311.500 74.165,311.500 74.247 C 311.500 74.392,312.184 73.723,312.648 73.125 C 313.031 72.631,312.766 72.801,312.117 73.465 M310.267 75.451 C 309.910 75.848,309.647 76.202,309.684 76.237 C 309.720 76.273,310.040 75.967,310.394 75.559 C 311.228 74.598,311.118 74.505,310.267 75.451 M308.354 77.463 C 307.952 77.857,307.657 78.213,307.697 78.253 C 307.738 78.293,308.099 77.992,308.500 77.583 C 309.441 76.625,309.314 76.520,308.354 77.463 M306.708 79.243 C 305.849 80.143,305.764 80.459,306.597 79.658 C 307.113 79.161,307.610 78.499,307.464 78.501 C 307.438 78.501,307.098 78.835,306.708 79.243 M316.583 84.513 C 314.017 87.269,311.662 89.799,311.352 90.137 C 310.202 91.385,306.683 95.160,304.333 97.667 C 301.734 100.439,298.446 103.972,297.067 105.475 L 296.217 106.401 295.567 105.894 C 288.976 100.754,280.587 94.333,280.463 94.333 C 280.414 94.333,276.633 98.288,272.062 103.121 C 267.490 107.954,263.075 112.612,262.250 113.472 C 261.425 114.331,260.700 115.121,260.639 115.228 C 260.295 115.824,265.596 121.650,268.424 123.784 C 273.396 127.536,278.397 129.728,284.333 130.756 C 286.106 131.063,292.970 131.295,293.453 131.065 C 293.632 130.979,292.295 130.887,290.083 130.832 C 287.503 130.768,286.046 130.657,285.167 130.456 C 284.479 130.299,283.279 130.027,282.500 129.851 C 279.164 129.099,275.288 127.345,271.875 125.044 C 271.119 124.534,270.500 124.053,270.500 123.975 C 270.500 123.897,270.415 123.833,270.312 123.833 C 269.772 123.833,264.564 118.820,264.122 117.875 C 264.025 117.669,263.887 117.500,263.814 117.500 C 263.487 117.500,263.121 116.339,263.355 116.041 C 263.697 115.604,264.485 114.738,265.417 113.777 C 265.876 113.304,267.301 111.793,268.584 110.421 C 269.867 109.048,271.385 107.456,271.958 106.884 C 272.531 106.311,273.000 105.799,273.000 105.744 C 273.000 105.690,273.581 105.065,274.292 104.356 C 275.002 103.647,276.631 101.946,277.911 100.575 C 279.191 99.205,280.466 97.840,280.744 97.543 C 281.480 96.758,282.190 97.019,284.014 98.750 C 284.159 98.887,284.365 99.000,284.472 99.000 C 284.579 99.000,284.667 99.063,284.667 99.139 C 284.667 99.215,285.079 99.562,285.583 99.909 C 286.087 100.256,286.500 100.606,286.500 100.687 C 286.500 100.767,286.587 100.833,286.694 100.833 C 286.801 100.833,287.007 100.947,287.153 101.086 C 287.590 101.505,290.351 103.656,291.375 104.375 C 291.902 104.745,292.333 105.112,292.333 105.191 C 292.333 105.269,292.421 105.333,292.528 105.333 C 292.635 105.333,292.841 105.447,292.986 105.587 C 296.236 108.704,297.416 108.776,299.953 106.016 C 301.789 104.017,302.713 103.036,304.160 101.550 C 304.714 100.981,305.167 100.486,305.167 100.450 C 305.167 100.413,305.598 99.939,306.125 99.397 C 306.652 98.855,307.833 97.596,308.750 96.598 C 310.690 94.486,311.859 93.232,313.250 91.771 C 313.800 91.193,314.662 90.274,315.167 89.730 C 315.671 89.185,316.908 87.848,317.917 86.758 C 321.734 82.632,321.879 82.519,322.278 83.347 C 323.738 86.376,324.855 93.380,324.610 97.970 C 324.534 99.382,324.550 99.612,324.688 99.083 C 325.228 97.006,324.622 89.120,323.643 85.500 C 323.065 83.361,321.594 79.498,321.359 79.502 C 321.299 79.502,319.150 81.758,316.583 84.513 M279.764 80.190 C 279.805 80.256,280.793 81.052,281.961 81.959 C 284.429 83.876,290.611 88.653,293.223 90.660 L 295.030 92.049 295.642 91.399 C 296.496 90.495,296.846 89.972,296.168 90.617 L 295.606 91.150 294.761 90.544 C 294.297 90.210,293.795 89.820,293.645 89.677 C 293.496 89.534,293.164 89.267,292.908 89.083 C 291.967 88.410,290.576 87.339,290.319 87.090 C 290.174 86.949,290.005 86.833,289.944 86.833 C 289.883 86.833,289.696 86.702,289.529 86.542 C 288.945 85.983,288.330 85.500,288.202 85.500 C 288.132 85.500,287.957 85.369,287.813 85.208 C 287.669 85.048,287.380 84.804,287.171 84.667 C 286.961 84.529,286.218 83.961,285.520 83.404 C 284.821 82.847,283.762 82.033,283.167 81.595 C 282.571 81.158,282.046 80.749,282.000 80.687 C 281.685 80.260,279.509 79.777,279.764 80.190 M277.785 81.297 C 276.920 82.176,276.693 82.687,277.515 81.906 C 278.011 81.435,278.752 80.500,278.630 80.500 C 278.597 80.500,278.217 80.859,277.785 81.297 M304.868 81.215 C 304.109 81.988,303.890 82.483,304.600 81.821 C 305.027 81.422,305.746 80.500,305.629 80.500 C 305.596 80.500,305.254 80.822,304.868 81.215 M303.003 83.247 C 302.600 83.657,302.310 84.032,302.358 84.080 C 302.435 84.157,302.635 83.955,303.634 82.792 C 304.121 82.225,303.727 82.510,303.003 83.247 M275.333 83.917 C 274.835 84.421,274.503 84.833,274.594 84.833 C 274.745 84.833,275.229 84.353,276.067 83.372 C 276.647 82.694,276.252 82.987,275.333 83.917 M301.282 85.099 C 300.932 85.424,300.670 85.753,300.698 85.830 C 300.727 85.907,301.036 85.640,301.387 85.235 C 302.154 84.349,302.127 84.314,301.282 85.099 M273.016 86.352 C 272.612 86.803,272.314 87.203,272.353 87.242 C 272.391 87.280,272.783 86.904,273.222 86.406 C 273.661 85.908,273.960 85.508,273.885 85.517 C 273.811 85.526,273.420 85.902,273.016 86.352 M299.353 87.120 C 298.951 87.519,298.656 87.878,298.697 87.919 C 298.737 87.960,299.099 87.659,299.500 87.250 C 299.901 86.841,300.196 86.482,300.156 86.451 C 300.116 86.421,299.755 86.722,299.353 87.120 M270.840 88.675 C 270.357 89.139,269.994 89.549,270.032 89.588 C 270.071 89.627,270.508 89.248,271.004 88.746 C 272.137 87.599,272.017 87.548,270.840 88.675 M297.599 89.021 C 297.241 89.378,296.983 89.705,297.026 89.748 C 297.070 89.792,297.395 89.530,297.750 89.167 C 298.105 88.803,298.362 88.476,298.323 88.439 C 298.283 88.402,297.957 88.664,297.599 89.021 M234.683 89.125 C 234.698 89.683,234.714 89.705,234.833 89.333 C 235.024 88.738,235.024 88.500,234.833 88.500 C 234.742 88.500,234.674 88.781,234.683 89.125 M234.714 90.583 C 234.716 91.042,234.748 91.209,234.786 90.956 C 234.825 90.703,234.824 90.328,234.784 90.123 C 234.744 89.918,234.713 90.125,234.714 90.583 M268.748 90.887 C 267.655 92.032,267.547 92.323,268.594 91.298 C 269.130 90.774,269.533 90.310,269.490 90.268 C 269.447 90.225,269.113 90.504,268.748 90.887 M234.604 96.500 C 234.643 99.774,234.742 101.742,234.922 102.833 C 235.065 103.704,235.247 104.867,235.327 105.417 C 235.594 107.260,236.300 110.246,236.848 111.850 C 237.023 112.364,237.167 112.874,237.167 112.983 C 237.167 113.093,237.317 113.493,237.500 113.873 C 237.683 114.252,237.833 114.659,237.833 114.777 C 237.833 114.895,237.991 115.349,238.184 115.787 C 238.378 116.225,238.684 116.921,238.866 117.333 C 239.048 117.746,239.293 118.308,239.410 118.583 C 239.527 118.858,239.705 119.271,239.805 119.500 C 239.985 119.913,240.924 121.635,241.667 122.917 C 241.880 123.283,242.159 123.788,242.288 124.038 C 242.416 124.289,242.589 124.536,242.673 124.587 C 242.756 124.639,242.947 124.940,243.098 125.257 C 243.248 125.574,243.438 125.833,243.519 125.833 C 243.600 125.833,243.667 125.905,243.667 125.992 C 243.667 126.079,244.023 126.647,244.458 127.254 C 244.894 127.861,245.324 128.502,245.415 128.679 C 245.505 128.855,245.626 129.000,245.683 129.000 C 245.741 129.000,246.228 129.563,246.767 130.250 C 247.305 130.938,247.803 131.500,247.873 131.500 C 247.943 131.500,248.000 131.610,248.000 131.744 C 248.000 131.878,248.150 132.069,248.333 132.167 C 248.517 132.265,248.667 132.409,248.667 132.487 C 248.667 132.623,252.721 136.668,253.750 137.558 C 254.025 137.796,254.362 138.091,254.500 138.214 C 255.401 139.018,257.337 140.500,257.487 140.500 C 257.586 140.500,257.667 140.565,257.667 140.644 C 257.667 140.795,259.942 142.333,260.165 142.333 C 260.235 142.333,260.392 142.454,260.514 142.601 C 260.636 142.748,260.889 142.939,261.076 143.026 C 261.264 143.113,261.717 143.364,262.083 143.585 C 264.120 144.811,268.348 146.833,268.874 146.833 C 268.998 146.833,269.171 146.899,269.258 146.979 C 269.567 147.265,272.685 148.312,274.500 148.740 C 275.004 148.859,275.717 149.035,276.083 149.131 C 281.308 150.503,291.656 151.149,296.680 150.417 C 297.727 150.264,299.108 150.078,299.750 150.004 C 301.879 149.756,306.183 148.695,308.583 147.826 C 309.042 147.661,309.697 147.439,310.039 147.334 C 310.382 147.228,310.705 147.073,310.758 146.988 C 310.810 146.903,310.972 146.833,311.117 146.833 C 311.262 146.833,311.726 146.675,312.148 146.482 C 312.571 146.289,313.254 145.977,313.667 145.791 C 314.079 145.604,314.529 145.398,314.667 145.334 C 314.963 145.196,316.829 144.189,317.685 143.705 C 318.918 143.009,319.074 142.910,319.398 142.625 C 319.580 142.465,319.816 142.333,319.922 142.333 C 320.028 142.333,320.251 142.183,320.417 142.000 C 320.583 141.817,320.813 141.667,320.929 141.667 C 321.044 141.667,321.164 141.610,321.194 141.542 C 321.225 141.473,321.587 141.200,322.000 140.935 C 322.412 140.669,322.862 140.349,323.000 140.221 C 323.137 140.094,323.794 139.568,324.458 139.052 C 325.123 138.536,325.667 138.051,325.667 137.974 C 325.667 137.897,325.760 137.831,325.875 137.828 C 325.990 137.825,326.342 137.563,326.659 137.245 C 327.485 136.414,327.457 136.398,330.544 139.458 C 333.846 142.732,333.759 142.592,333.888 144.810 C 333.964 146.115,334.071 146.676,334.327 147.111 C 334.514 147.427,334.667 147.756,334.667 147.841 C 334.667 148.555,356.175 169.830,357.583 170.509 C 360.463 171.897,362.969 171.382,365.546 168.873 C 371.178 163.387,371.556 162.857,371.574 160.417 C 371.587 158.822,370.681 156.143,370.042 155.883 C 369.927 155.836,369.833 155.726,369.833 155.639 C 369.833 155.375,349.285 134.934,348.576 134.493 C 347.419 133.773,346.761 133.548,345.449 133.425 C 344.064 133.295,343.617 133.546,344.916 133.724 C 346.650 133.962,346.815 134.109,357.959 145.300 C 369.780 157.171,369.352 156.658,369.468 159.099 C 369.570 161.255,369.393 161.539,365.533 165.374 C 361.160 169.719,359.584 170.185,356.417 168.074 C 354.798 166.994,335.111 147.046,334.585 145.952 C 334.049 144.836,333.842 143.027,334.149 142.145 L 334.341 141.594 330.480 137.730 L 326.618 133.866 324.995 135.322 C 311.786 147.167,292.961 151.521,274.833 146.924 C 261.712 143.595,250.521 135.256,242.781 123.038 C 237.397 114.539,234.940 105.717,234.601 93.667 C 234.571 92.612,234.573 93.888,234.604 96.500 M266.167 93.583 C 265.669 94.087,265.337 94.500,265.430 94.500 C 265.591 94.500,266.517 93.583,266.988 92.958 C 267.393 92.420,267.079 92.659,266.167 93.583 M263.917 96.000 C 263.465 96.458,263.172 96.833,263.265 96.833 C 263.359 96.833,263.711 96.509,264.049 96.113 C 264.387 95.716,264.714 95.341,264.776 95.279 C 264.838 95.217,264.855 95.167,264.813 95.167 C 264.772 95.167,264.368 95.542,263.917 96.000 M261.681 98.351 C 261.206 98.818,260.839 99.256,260.867 99.323 C 260.894 99.390,261.318 99.007,261.809 98.472 C 262.909 97.273,262.841 97.208,261.681 98.351 M259.321 100.846 C 258.853 101.311,258.500 101.722,258.536 101.759 C 258.573 101.795,259.008 101.414,259.504 100.913 C 260.000 100.411,260.353 100.000,260.288 100.000 C 260.224 100.000,259.788 100.381,259.321 100.846 M324.333 100.510 C 324.333 100.699,324.408 100.807,324.500 100.750 C 324.592 100.693,324.667 100.539,324.667 100.407 C 324.667 100.275,324.592 100.167,324.500 100.167 C 324.408 100.167,324.333 100.321,324.333 100.510 M320.950 111.997 C 320.711 112.457,320.547 112.833,320.584 112.833 C 320.709 112.833,321.542 111.320,321.462 111.240 C 321.419 111.197,321.188 111.537,320.950 111.997 M320.167 113.500 C 319.971 113.775,319.848 114.000,319.894 114.000 C 319.940 114.000,320.138 113.775,320.333 113.500 C 320.529 113.225,320.652 113.000,320.606 113.000 C 320.560 113.000,320.362 113.225,320.167 113.500 M318.930 115.464 L 318.610 115.917 319.055 115.513 C 319.523 115.088,319.580 114.997,319.375 115.005 C 319.306 115.008,319.106 115.214,318.930 115.464 M318.205 116.500 C 318.091 116.683,318.055 116.833,318.125 116.833 C 318.196 116.833,318.347 116.683,318.461 116.500 C 318.576 116.317,318.612 116.167,318.542 116.167 C 318.471 116.167,318.320 116.317,318.205 116.500 M315.833 119.417 C 315.618 119.646,315.518 119.833,315.612 119.833 C 315.825 119.833,316.416 119.194,316.305 119.083 C 316.260 119.038,316.048 119.189,315.833 119.417 M314.333 121.083 C 313.928 121.496,313.635 121.833,313.681 121.833 C 313.726 121.833,314.095 121.496,314.500 121.083 C 314.905 120.671,315.199 120.333,315.153 120.333 C 315.107 120.333,314.738 120.671,314.333 121.083 M312.573 122.695 L 312.083 123.223 312.620 122.854 C 313.194 122.458,313.444 122.167,313.208 122.167 C 313.128 122.167,312.842 122.404,312.573 122.695 M107.181 123.527 C 106.876 123.993,106.092 124.944,105.438 125.641 C 104.785 126.338,104.478 126.721,104.757 126.493 C 105.860 125.593,108.003 122.947,107.797 122.741 C 107.763 122.708,107.486 123.061,107.181 123.527 M311.642 123.459 C 311.518 123.631,311.285 123.821,311.125 123.881 C 310.965 123.941,310.833 124.072,310.833 124.173 C 310.833 124.360,311.738 123.788,311.928 123.481 C 312.125 123.164,311.869 123.143,311.642 123.459 M307.375 126.498 C 307.077 126.680,306.833 126.865,306.833 126.909 C 306.833 126.953,307.096 126.834,307.417 126.645 C 307.737 126.455,308.000 126.270,308.000 126.234 C 308.000 126.127,307.947 126.149,307.375 126.498 M103.500 127.333 C 103.271 127.513,103.158 127.659,103.250 127.659 C 103.342 127.659,103.604 127.513,103.833 127.333 C 104.063 127.154,104.175 127.007,104.083 127.007 C 103.992 127.007,103.729 127.154,103.500 127.333 M305.042 127.748 C 304.744 127.878,304.500 128.021,304.500 128.067 C 304.500 128.196,305.489 127.819,305.593 127.650 C 305.710 127.461,305.697 127.464,305.042 127.748 M102.523 128.014 C 102.307 128.190,102.194 128.331,102.273 128.328 C 102.477 128.321,103.073 127.851,102.988 127.766 C 102.949 127.727,102.740 127.839,102.523 128.014 M303.000 128.667 C 302.679 128.842,302.285 128.989,302.125 128.993 C 301.965 128.997,301.833 129.076,301.833 129.169 C 301.833 129.266,302.101 129.224,302.458 129.071 C 302.802 128.924,303.252 128.738,303.458 128.656 C 303.665 128.575,303.833 128.469,303.833 128.421 C 303.833 128.269,303.601 128.337,303.000 128.667 M298.417 130.167 C 298.207 130.257,298.176 130.310,298.333 130.310 C 298.471 130.310,298.733 130.245,298.917 130.167 C 299.127 130.076,299.158 130.023,299.000 130.023 C 298.862 130.023,298.600 130.088,298.417 130.167 M93.083 131.000 C 93.140 131.092,93.290 131.167,93.417 131.167 C 93.543 131.167,93.693 131.092,93.750 131.000 C 93.809 130.905,93.665 130.833,93.417 130.833 C 93.168 130.833,93.025 130.905,93.083 131.000 " stroke="none" fill="#f3f3f3" fill-rule="evenodd"></path><path id="path3" d="M349.580 39.358 C 348.940 39.520,348.117 39.688,347.750 39.731 C 347.383 39.774,346.608 39.922,346.026 40.060 C 345.445 40.198,344.864 40.270,344.735 40.221 C 344.606 40.172,344.500 40.222,344.500 40.333 C 344.500 40.445,344.400 40.497,344.278 40.451 C 344.157 40.404,343.470 40.505,342.752 40.676 C 342.035 40.847,341.390 40.951,341.319 40.908 C 341.248 40.864,341.150 40.893,341.101 40.972 C 341.052 41.051,340.797 41.122,340.534 41.129 C 340.272 41.137,339.592 41.263,339.023 41.411 C 338.454 41.558,337.921 41.637,337.839 41.587 C 337.757 41.536,337.642 41.572,337.583 41.667 C 337.525 41.761,337.424 41.806,337.359 41.766 C 337.293 41.725,336.645 41.831,335.917 42.000 C 335.189 42.169,334.548 42.280,334.494 42.246 C 334.439 42.212,333.836 42.328,333.155 42.505 C 332.474 42.681,331.544 42.868,331.088 42.921 C 329.805 43.071,329.557 42.729,333.905 46.790 L 335.726 48.491 334.196 49.998 C 333.355 50.826,332.667 51.558,332.667 51.624 C 332.667 51.690,332.254 52.131,331.750 52.604 C 331.246 53.077,330.833 53.519,330.833 53.586 C 330.833 53.654,330.349 54.205,329.756 54.813 C 329.164 55.420,327.013 57.717,324.975 59.917 C 322.938 62.117,320.329 64.929,319.177 66.165 C 318.025 67.402,316.491 69.052,315.766 69.832 C 315.041 70.612,314.053 71.662,313.569 72.167 C 311.640 74.179,310.845 75.024,309.167 76.848 C 308.204 77.894,306.967 79.232,306.417 79.821 C 305.867 80.410,304.992 81.348,304.474 81.905 C 303.955 82.461,303.168 83.300,302.724 83.768 C 302.280 84.236,301.602 84.967,301.218 85.393 C 300.834 85.818,300.440 86.167,300.343 86.167 C 300.246 86.167,300.167 86.268,300.167 86.392 C 300.167 86.517,299.754 87.008,299.250 87.485 C 298.746 87.962,298.334 88.404,298.334 88.468 C 298.334 88.531,297.924 88.996,297.421 89.500 C 296.918 90.004,296.177 90.786,295.774 91.237 L 295.041 92.057 293.229 90.664 C 292.232 89.898,289.767 87.998,287.750 86.441 C 285.733 84.884,283.258 82.974,282.250 82.195 C 281.242 81.417,280.166 80.548,279.860 80.265 L 279.302 79.750 278.863 80.333 C 278.621 80.654,277.881 81.479,277.218 82.167 C 273.822 85.687,273.260 86.285,272.881 86.782 C 272.655 87.078,272.327 87.366,272.152 87.421 C 271.977 87.477,271.833 87.620,271.833 87.739 C 271.833 87.857,271.308 88.452,270.667 89.060 C 270.025 89.668,269.500 90.231,269.500 90.310 C 269.500 90.389,268.956 90.990,268.292 91.644 C 267.627 92.299,266.483 93.473,265.750 94.255 C 265.017 95.037,264.004 96.108,263.500 96.637 C 262.996 97.165,262.153 98.063,261.627 98.632 C 261.102 99.201,260.595 99.667,260.502 99.667 C 260.409 99.667,260.334 99.760,260.336 99.875 C 260.337 99.990,259.818 100.608,259.183 101.250 C 258.547 101.892,257.567 102.915,257.004 103.524 L 255.982 104.631 256.253 105.690 C 256.959 108.444,259.152 113.606,260.149 114.861 L 260.501 115.304 261.881 113.861 C 262.640 113.066,263.408 112.258,263.589 112.064 C 266.528 108.907,280.397 94.333,280.463 94.333 C 280.587 94.333,288.958 100.741,295.567 105.894 L 296.217 106.401 297.067 105.475 C 298.351 104.075,301.614 100.567,304.407 97.583 C 305.779 96.117,307.393 94.389,307.993 93.745 C 308.593 93.101,309.538 92.088,310.094 91.495 C 310.650 90.902,314.767 86.479,319.243 81.667 C 323.718 76.854,327.878 72.392,328.488 71.750 C 329.097 71.108,331.727 68.296,334.332 65.500 C 336.937 62.704,339.110 60.379,339.160 60.333 C 339.209 60.288,340.177 59.256,341.311 58.042 C 342.444 56.827,343.424 55.833,343.489 55.833 C 343.554 55.833,344.896 57.038,346.471 58.511 C 348.191 60.119,349.363 61.102,349.405 60.970 C 349.444 60.849,349.672 58.913,349.912 56.667 C 350.151 54.421,350.491 51.346,350.667 49.833 C 351.125 45.883,351.833 39.435,351.833 39.218 C 351.833 38.958,350.943 39.013,349.580 39.358 " stroke="none" fill="#34ac54" fill-rule="evenodd"></path><path id="path4" d="M80.750 40.026 C 80.108 40.106,79.208 40.200,78.750 40.234 C 78.292 40.267,77.879 40.313,77.833 40.334 C 77.787 40.355,77.693 40.364,77.624 40.353 C 77.555 40.342,76.846 40.478,76.049 40.656 C 75.252 40.833,74.545 40.945,74.478 40.903 C 74.411 40.862,74.309 40.905,74.250 41.000 C 74.191 41.095,74.086 41.137,74.016 41.093 C 73.945 41.050,73.444 41.148,72.902 41.313 C 72.360 41.477,71.823 41.580,71.708 41.542 C 71.594 41.503,71.500 41.566,71.500 41.681 C 71.500 41.795,71.454 41.843,71.397 41.786 C 71.340 41.729,70.916 41.827,70.454 42.002 C 69.993 42.177,69.552 42.282,69.474 42.234 C 69.397 42.186,69.333 42.226,69.333 42.323 C 69.333 42.421,69.276 42.481,69.205 42.458 C 69.084 42.419,68.811 42.520,67.005 43.273 C 66.596 43.444,66.258 43.561,66.255 43.534 C 66.250 43.489,63.415 44.935,62.500 45.451 C 61.863 45.810,61.083 46.332,59.505 47.457 C 59.279 47.618,58.690 48.125,58.198 48.583 C 57.706 49.042,57.122 49.528,56.901 49.664 C 56.681 49.799,56.500 49.997,56.500 50.103 C 56.500 50.208,56.181 50.583,55.792 50.934 C 55.402 51.286,55.088 51.614,55.093 51.662 C 55.104 51.755,53.378 54.155,52.848 54.784 C 52.679 54.985,52.571 55.182,52.610 55.221 C 52.649 55.260,52.412 55.750,52.084 56.309 C 51.756 56.869,51.485 57.384,51.482 57.455 C 51.478 57.526,51.325 57.827,51.141 58.125 C 50.957 58.423,50.851 58.667,50.905 58.667 C 50.960 58.667,50.774 59.124,50.491 59.684 C 50.209 60.243,50.016 60.738,50.063 60.785 C 50.109 60.832,49.996 61.254,49.811 61.723 C 49.626 62.192,49.446 62.803,49.410 63.081 C 49.375 63.359,49.232 64.127,49.093 64.788 C 48.954 65.449,48.884 66.106,48.939 66.247 C 48.993 66.389,48.970 66.597,48.887 66.710 C 48.607 67.096,48.928 73.251,49.327 75.133 C 50.338 79.910,52.184 83.672,55.375 87.457 C 60.968 94.090,67.934 97.443,85.250 101.837 C 100.140 105.615,103.513 106.832,106.338 109.448 C 108.756 111.687,110.048 115.481,109.344 118.276 C 109.232 118.720,109.110 119.321,109.073 119.612 C 108.945 120.613,107.797 123.089,106.960 124.167 C 105.959 125.458,103.597 127.667,103.218 127.667 C 103.098 127.667,103.000 127.733,103.000 127.815 C 103.000 127.897,102.681 128.119,102.292 128.310 C 101.902 128.501,101.396 128.760,101.167 128.887 C 100.406 129.308,99.588 129.671,99.250 129.738 C 99.067 129.774,98.692 129.894,98.417 130.005 C 98.142 130.116,97.767 130.228,97.583 130.253 C 97.400 130.279,96.637 130.457,95.889 130.650 C 95.140 130.843,94.412 130.956,94.272 130.902 C 94.131 130.848,93.919 130.865,93.800 130.940 C 93.045 131.417,85.436 131.358,82.873 130.856 C 73.756 129.072,68.152 123.077,65.968 112.770 L 65.583 110.958 62.667 111.061 C 61.063 111.118,56.609 111.214,52.770 111.275 L 45.790 111.385 45.882 114.401 C 46.611 138.360,65.395 151.656,95.109 149.246 C 107.478 148.243,115.937 144.894,122.120 138.554 C 134.383 125.979,133.834 103.948,120.988 93.059 C 115.390 88.314,108.194 85.398,92.498 81.516 C 75.707 77.363,70.895 74.925,69.589 69.911 C 67.964 63.675,73.390 58.815,83.167 57.749 C 96.220 56.325,104.971 61.403,106.264 71.150 L 106.376 72.000 117.105 72.000 L 127.833 72.000 127.832 70.875 C 127.811 57.766,118.355 45.879,104.861 41.998 C 98.629 40.205,86.960 39.251,80.750 40.026 M342.858 133.679 C 341.630 133.921,340.861 134.525,337.649 137.777 C 333.675 141.801,333.199 143.069,334.585 145.952 C 335.111 147.046,354.798 166.994,356.417 168.074 C 357.977 169.114,359.657 169.396,361.345 168.901 C 362.550 168.548,368.567 162.690,369.174 161.279 C 369.685 160.092,369.587 158.128,368.953 156.819 C 368.328 155.529,347.894 134.954,346.577 134.288 C 345.884 133.938,344.040 133.448,343.678 133.518 C 343.626 133.528,343.257 133.601,342.858 133.679 " stroke="none" fill="#4484f4" fill-rule="evenodd"></path></g></svg>