<svg xmlns="http://www.w3.org/2000/svg" version="1.1" viewBox="127.01 61.32 446.58 447.06">	<defs></defs>	<g>		<path d="m350.04 149.66c4.4375-0.15625 8.8125 1.3633 12.09 4.6289l101.17 101.28c7.0625 7.0859 7.4844 18.043 0.93359 24.598l-15.031 15.059c-6.5508 6.5508-17.504 6.1211-24.559-0.93359l-42.266-42.305v152.6c0 8.5938-6.3789 15.469-14.316 15.469h-35.484c-7.9453 0-14.367-6.875-14.367-15.469l-0.007813-152.6-42.219 42.305c-7.0977 7.0625-18.059 7.4844-24.598 0.93359l-15.047-15.059c-6.5391-6.5508-6.0898-17.508 0.96875-24.598l100.21-100.33c3.543-3.5312 8.0859-5.418 12.523-5.5742zm0.25391-88.344c-59.211 0-116.01 23.551-157.89 65.465-41.871 41.938-65.395 98.777-65.395 158.09 0 59.254 23.527 116.13 65.395 158.04 41.875 41.914 98.68 65.465 157.89 65.465 59.242 0 116.02-23.551 157.89-65.465 41.875-41.914 65.406-98.789 65.406-158.04 0-59.316-23.527-116.16-65.406-158.09-41.871-41.906-98.648-65.465-157.89-65.465z" fill="#ffb943"></path>	</g></svg>